<svg id="Layer_1" xmlns="http://www.w3.org/2000/svg" xmlns:xlink="http://www.w3.org/1999/xlink" height="250" width="250" viewBox="0 0 250 250" style="enable-background:new 0 0 250 250;"><style>.st0{fill:#DD0031;}
.st1{fill:#C3002F;}
.st2{fill:#FFFFFF;}</style><path class="st0" d="M125 30v0 0L31.9 63.2 46.1 186.3 125 230v0 0L203.9 186.3 218.1 63.2z"/><path class="st1" d="M125 30V52.2 52.1 153.4v0V230v0L203.9 186.3 218.1 63.2 125 30z"/><path class="st2" d="M125 52.1 66.8 182.6h0 21.7.0l11.7-29.2h49.4l11.7 29.2h0 21.7.0L125 52.1v0 0 0 0zM142 135.4H108l17-40.9L142 135.4z"/></svg>